<svg xmlns="http://www.w3.org/2000/svg" viewBox="2060.561 -56 13.439 16">
  <defs>
    <style>
      .cls-1 {
        fill: #fff;
      }
    </style>
  </defs>
  <path id="Path_215" data-name="Path 215" class="cls-1" d="M9.934,3.3c0,2.266-1.442,5.013-3.3,5.013s-3.3-2.747-3.3-5.013A3.06,3.06,0,0,1,6.638,0,3.06,3.06,0,0,1,9.934,3.3Zm3.09,7.828A2.989,2.989,0,0,0,11.17,9.339a9.171,9.171,0,0,1-1.236-.481c-.069-.069-.206-.069-.275-.137a.933.933,0,0,0-1.1.137,2.781,2.781,0,0,1-1.854.755,2.781,2.781,0,0,1-1.854-.755,1.04,1.04,0,0,0-1.167-.137l-1.442.618a2.989,2.989,0,0,0-1.511,1.03,4.611,4.611,0,0,0-.687,1.579A6.116,6.116,0,0,0,.183,14.9a.219.219,0,0,0,.206.206c.481.137.893.275,1.373.412a18.037,18.037,0,0,0,3.365.412A1.339,1.339,0,0,1,5.676,16h2.06a4.534,4.534,0,0,0,.961-.069c.755-.069,1.579-.137,2.335-.275a4.763,4.763,0,0,0,1.923-.549.948.948,0,0,0,.206-.275,3.543,3.543,0,0,0,.137-.755A6.214,6.214,0,0,0,13.024,11.124Z" transform="translate(2060.635 -56)"/>
</svg>
